<?xml version="1.0" encoding="utf-8"?>
<!-- Generator: Adobe Illustrator 28.0.0, SVG Export Plug-In . SVG Version: 6.00 Build 0)  -->
<svg version="1.1" id="Слой_1" focusable="false"
	 xmlns="http://www.w3.org/2000/svg" xmlns:xlink="http://www.w3.org/1999/xlink" x="0px" y="0px" viewBox="0 0 708.7 708.7"
	 style="enable-background:new 0 0 708.7 708.7;" xml:space="preserve">
<style type="text/css">
	.st0{fill:#F3F3F3;}
	.st1{fill:none;}
	.st2{font-family:'TimesNewRomanPS-BoldMT';}
	.st3{font-size:340px;}
	.st4{font-size:238.7507px;}
</style>
<path class="st0" d="M520.1,420.8c-2.8-4.8-9.8-4.8-12.6,0l-160,277c-2.8,4.8,0.7,10.9,6.2,10.9c0.2,0,0.3,0,0.5,0
	c102.9,0,195.6-43.9,260.3-113.9c2.2-2.3,2.6-5.8,1-8.6L520.1,420.8L520.1,420.8z M373.2,520.3l-319.5,0.3c-5.6,0-9.1,6-6.3,10.9
	C96.1,615.7,178.4,678,276.1,700c3.1,0.7,6.3-0.7,7.9-3.4l95.5-165.4C382.2,526.3,378.7,520.3,373.2,520.3L373.2,520.3z
	 M661.4,177.4C612.7,93,530.1,30.6,432.2,8.6c-3.1-0.7-6.3,0.7-7.9,3.4l-95.5,165.4c-2.8,4.8,0.7,10.9,6.3,10.9l320-0.1
	C660.7,188.3,664.2,182.3,661.4,177.4L661.4,177.4z M685.8,244h-191c-5.6,0-9.1,6-6.3,10.9l160,276.9c2.8,4.8,9.8,4.8,12.6,0
	c30.2-52.2,47.6-112.8,47.6-177.4c0-36.6-5.6-72-15.9-105.2C691.8,246.1,689,244,685.8,244L685.8,244z M354.5,0c0,0-0.1,0-0.1,0
	C251.4,0,158.8,43.9,94.1,113.9c-2.2,2.3-2.6,5.8-1,8.6l95.4,165.3c2.8,4.8,9.8,4.8,12.6,0L360.7,10.9C363.5,6.1,360,0,354.5,0
	L354.5,0z M22.9,464.9H214c5.6,0,9.1-6,6.3-10.9L60.2,176.8c-2.8-4.8-9.8-4.8-12.6,0C17.3,229,0,289.7,0,354.3
	c0,36.7,5.6,72.2,16,105.5C16.9,462.8,19.7,464.9,22.9,464.9L22.9,464.9z"/>
<rect x="-7.7" y="155.7" class="st1" width="708.7" height="397.3"/>
<text transform="matrix(1.1192 0 0 1 29.816 467.0397)" class="st2 st3">MN</text>
<rect x="46.4" y="173.2" class="st1" width="708.7" height="397.3"/>
<text transform="matrix(1.0216 0 0 1 336.3708 451.0032)" class="st2 st4"> i</text>
</svg>
